<svg xmlns="http://www.w3.org/2000/svg" width="196.723" height="207.701" viewBox="0 0 196.723 207.701">
  <g id="Group_2413" data-name="Group 2413" transform="translate(-3930.182 -1135.945)">
    <path id="Path_398" data-name="Path 398" d="M1157.279,92.342h0l-68.033-.013a3.148,3.148,0,0,1-3.152-3.147l-.011-25.11a3.145,3.145,0,0,1,3.151-3.153h68.037a3.152,3.152,0,0,1,3.154,3.149l0,25.125a3.148,3.148,0,0,1-3.148,3.149" transform="translate(2884.169 1132.946)" fill="#1d375a"/>
    <path id="Path_399" data-name="Path 399" d="M1239.587,92.355h0l-68.045-.012a3.151,3.151,0,0,1-3.15-3.15V64.082a3.149,3.149,0,0,1,3.15-3.152h68.035a3.151,3.151,0,0,1,3.152,3.152l.007,25.121a3.146,3.146,0,0,1-3.149,3.152" transform="translate(2884.169 1132.946)" fill="#3d5276"/>
    <path id="Path_400" data-name="Path 400" d="M1157.279,193.156h0l-64.883-.01a3.15,3.15,0,0,1-3.15-3.15l-.012-84.969a3.151,3.151,0,0,1,3.148-3.153h64.889a3.153,3.153,0,0,1,3.154,3.15l0,84.982a3.143,3.143,0,0,1-3.148,3.15" transform="translate(2884.169 1132.946)" fill="#3d5276"/>
    <path id="Path_401" data-name="Path 401" d="M1236.438,193.169h0l-64.9-.013a3.15,3.15,0,0,1-3.15-3.15V105.037a3.15,3.15,0,0,1,3.15-3.153h64.886a3.149,3.149,0,0,1,3.149,3.153l.01,84.982a3.155,3.155,0,0,1-3.149,3.15" transform="translate(2884.169 1132.946)" fill="#1d375a"/>
    <path id="Path_402" data-name="Path 402" d="M1123.178,50.007a107.817,107.817,0,0,0,12.655,10.871h55.515A107.9,107.9,0,0,0,1204,50.017c15.188-15.193,26.447-34.6,17.349-43.717A11.788,11.788,0,0,0,1212.73,3c-8.9,0-22.346,7.917-35.085,20.663A100.409,100.409,0,0,0,1163.6,40.981a101.533,101.533,0,0,0-14.067-17.329C1136.784,10.913,1123.34,3,1114.445,3a11.719,11.719,0,0,0-8.612,3.3c-3.156,3.146-5.662,9.384.323,21.237,3.585,7.094,9.631,15.075,17.022,22.47M1186.981,33c10.349-10.351,19.794-15.611,24.339-16.613-.988,4.009-5.776,13.4-16.66,24.288-10.184,10.173-19.487,15.43-24.269,16.546,1.066-4.589,6.326-13.96,16.59-24.221m-46.785-.013c10.888,10.891,15.676,20.289,16.664,24.3-4.545-1-13.99-6.262-24.345-16.614-6.424-6.43-11.6-13.208-14.57-19.085a23.428,23.428,0,0,1-2.007-5.179c4.576,1.045,13.97,6.306,24.258,16.583" transform="translate(2884.169 1132.946)" fill="#c6d0e1"/>
    <path id="Path_403" data-name="Path 403" d="M1178.029,60.929a17.262,17.262,0,1,0-28.928,0Z" transform="translate(2884.169 1132.946)" fill="#c6d0e1"/>
    <path id="Path_404" data-name="Path 404" d="M1082.294,141.788h0l-34.669-.007a1.6,1.6,0,0,1-1.606-1.6l-.006-12.8a1.6,1.6,0,0,1,1.605-1.607h34.673a1.6,1.6,0,0,1,1.6,1.6l0,12.8a1.6,1.6,0,0,1-1.605,1.6" transform="translate(2884.169 1132.946)" fill="#1d375a"/>
    <path id="Path_405" data-name="Path 405" d="M1124.238,141.795h0l-34.676-.007a1.606,1.606,0,0,1-1.6-1.6v-12.8a1.605,1.605,0,0,1,1.6-1.607h34.671a1.606,1.606,0,0,1,1.606,1.607l0,12.8a1.6,1.6,0,0,1-1.6,1.607" transform="translate(2884.169 1132.946)" fill="#3d5276"/>
    <path id="Path_406" data-name="Path 406" d="M1082.294,193.163h0l-33.065,0a1.605,1.605,0,0,1-1.6-1.605l-.007-43.3a1.608,1.608,0,0,1,1.6-1.607h33.068a1.6,1.6,0,0,1,1.6,1.605l0,43.307a1.6,1.6,0,0,1-1.605,1.6" transform="translate(2884.169 1132.946)" fill="#3d5276"/>
    <path id="Path_407" data-name="Path 407" d="M1122.633,193.169h0l-33.071-.007a1.6,1.6,0,0,1-1.6-1.6v-43.3a1.6,1.6,0,0,1,1.6-1.606h33.066a1.6,1.6,0,0,1,1.6,1.606l.005,43.307a1.608,1.608,0,0,1-1.6,1.605" transform="translate(2884.169 1132.946)" fill="#1d375a"/>
    <path id="Path_408" data-name="Path 408" d="M1064.917,120.214a54.763,54.763,0,0,0,6.449,5.54h28.29a55.023,55.023,0,0,0,6.447-5.534c7.739-7.743,13.477-17.634,8.841-22.279a6.011,6.011,0,0,0-4.392-1.68c-4.537,0-11.388,4.035-17.879,10.53a51.185,51.185,0,0,0-7.157,8.823,51.8,51.8,0,0,0-7.169-8.83c-6.5-6.492-13.348-10.525-17.881-10.525a5.971,5.971,0,0,0-4.388,1.682c-1.609,1.6-2.885,4.783.165,10.822a47.321,47.321,0,0,0,8.674,11.451m32.514-8.665c5.273-5.275,10.086-7.956,12.4-8.466-.5,2.043-2.944,6.83-8.491,12.377-5.189,5.184-9.93,7.863-12.367,8.432.544-2.339,3.224-7.114,8.455-12.343m-23.842-.007c5.548,5.55,7.989,10.339,8.492,12.381-2.316-.511-7.129-3.191-12.406-8.467a40.623,40.623,0,0,1-7.425-9.725,11.937,11.937,0,0,1-1.023-2.64c2.332.533,7.119,3.214,12.362,8.451" transform="translate(2884.169 1132.946)" fill="#c6d0e1"/>
    <path id="Path_409" data-name="Path 409" d="M1092.868,125.78a8.8,8.8,0,1,0-14.742,0Z" transform="translate(2884.169 1132.946)" fill="#c6d0e1"/>
    <path id="Path_410" data-name="Path 410" d="M1146.156,159.319h0l-34.669-.007a1.6,1.6,0,0,1-1.606-1.6l-.006-12.8a1.6,1.6,0,0,1,1.6-1.607h34.672a1.606,1.606,0,0,1,1.607,1.6l0,12.8a1.6,1.6,0,0,1-1.6,1.6" transform="translate(2884.169 1132.946)" fill="#1d375a"/>
    <path id="Path_411" data-name="Path 411" d="M1188.1,159.326h0l-34.676-.007a1.6,1.6,0,0,1-1.605-1.6v-12.8a1.6,1.6,0,0,1,1.605-1.607H1188.1a1.606,1.606,0,0,1,1.606,1.607l0,12.8a1.6,1.6,0,0,1-1.605,1.607" transform="translate(2884.169 1132.946)" fill="#3d5276"/>
    <path id="Path_412" data-name="Path 412" d="M1146.156,210.693h0l-33.064,0a1.605,1.605,0,0,1-1.6-1.6l-.007-43.3a1.608,1.608,0,0,1,1.6-1.607h33.067a1.606,1.606,0,0,1,1.607,1.6l0,43.307a1.6,1.6,0,0,1-1.6,1.6" transform="translate(2884.169 1132.946)" fill="#3d5276"/>
    <path id="Path_413" data-name="Path 413" d="M1186.5,210.7h0l-33.071-.007a1.6,1.6,0,0,1-1.605-1.6v-43.3a1.6,1.6,0,0,1,1.605-1.606h33.066a1.605,1.605,0,0,1,1.6,1.606l.005,43.307a1.608,1.608,0,0,1-1.6,1.6" transform="translate(2884.169 1132.946)" fill="#1d375a"/>
    <path id="Path_414" data-name="Path 414" d="M1128.779,137.745a54.745,54.745,0,0,0,6.449,5.54h28.29a55,55,0,0,0,6.447-5.534c7.739-7.743,13.477-17.634,8.841-22.279a6.011,6.011,0,0,0-4.392-1.68c-4.537,0-11.387,4.035-17.879,10.53a51.173,51.173,0,0,0-7.157,8.823,51.808,51.808,0,0,0-7.169-8.83c-6.5-6.492-13.348-10.525-17.881-10.525a5.971,5.971,0,0,0-4.388,1.682c-1.609,1.6-2.885,4.783.165,10.822a47.322,47.322,0,0,0,8.674,11.451m32.514-8.665c5.273-5.275,10.086-7.956,12.4-8.466-.5,2.043-2.944,6.83-8.491,12.377-5.189,5.184-9.93,7.863-12.366,8.432.543-2.339,3.223-7.114,8.454-12.343m-23.842-.007c5.548,5.55,7.989,10.339,8.492,12.381-2.316-.511-7.129-3.191-12.406-8.467a40.619,40.619,0,0,1-7.425-9.725,11.939,11.939,0,0,1-1.023-2.64c2.332.533,7.119,3.214,12.362,8.451" transform="translate(2884.169 1132.946)" fill="#c6d0e1"/>
    <path id="Path_415" data-name="Path 415" d="M1156.731,143.311a8.8,8.8,0,1,0-14.742,0Z" transform="translate(2884.169 1132.946)" fill="#c6d0e1"/>
  </g>
</svg>
