<svg xmlns="http://www.w3.org/2000/svg" width="275.711" height="218" viewBox="0 0 275.711 218">
  <g id="Group_2413" data-name="Group 2413" transform="translate(-803.222 -1240.564)">
    <path id="Path_416" data-name="Path 416" d="M700.661,45.435a32.678,32.678,0,0,1,9.7-3.041,35.628,35.628,0,0,1,24.026,4.919,36.527,36.527,0,0,1,7.6,6.379c1.6,1.721,1.492,3.076-.373,4.455q-11.276,8.339-22.564,16.66c-2.058,1.518-2.043,3.268.046,4.81q11.324,8.352,22.636,16.714c1.632,1.205,1.807,2.532.518,4.071-.326.392-.711.735-1.071,1.1a26.746,26.746,0,0,1-8.877,2.715,33.749,33.749,0,0,1-18.9-2.265,35.028,35.028,0,0,1-20.589-23.036,32.465,32.465,0,0,1-1.4-9.916,35.276,35.276,0,0,1,8.506-22.778c.233-.277.582-.441.738-.787" transform="translate(253.169 1217)" fill="#90a0c0"/>
    <path id="Path_417" data-name="Path 417" d="M700.661,45.435c.011.7-.6,1.019-.96,1.452a34.459,34.459,0,0,0-5.888,10.3,35.285,35.285,0,0,0-2.032,10.11,35.163,35.163,0,0,0,28.912,36.556,34.254,34.254,0,0,0,7.993.521,35.784,35.784,0,0,0,11.3-2.5,4.057,4.057,0,0,1,1.2-.375,33.991,33.991,0,0,1-16.422,9.759,35.381,35.381,0,0,1-35.046-10.386,33.784,33.784,0,0,1-8.6-17.539,34.413,34.413,0,0,1,6.55-27.327,33.331,33.331,0,0,1,12.994-10.574" transform="translate(253.169 1217)" fill="#90a0c0"/>
    <path id="Path_418" data-name="Path 418" d="M783.318,143.091a32.706,32.706,0,0,1,9.7-3.04,35.628,35.628,0,0,1,24.026,4.919,36.491,36.491,0,0,1,7.6,6.379c1.6,1.721,1.491,3.075-.373,4.454Q813,164.143,801.71,172.464c-2.059,1.518-2.043,3.268.045,4.809q11.325,8.352,22.637,16.715c1.631,1.2,1.806,2.532.518,4.071-.327.392-.712.735-1.071,1.1a26.754,26.754,0,0,1-8.877,2.716,33.744,33.744,0,0,1-18.9-2.266,35.025,35.025,0,0,1-20.588-23.035,32.475,32.475,0,0,1-1.4-9.917,35.275,35.275,0,0,1,8.507-22.777c.233-.277.582-.441.738-.788" transform="translate(253.169 1217)" fill="#90a0c0"/>
    <path id="Path_419" data-name="Path 419" d="M783.318,143.091c.011.7-.6,1.02-.961,1.453a34.476,34.476,0,0,0-5.888,10.3,35.317,35.317,0,0,0-2.031,10.111,35.24,35.24,0,0,0,36.905,37.077,35.785,35.785,0,0,0,11.3-2.5,4.058,4.058,0,0,1,1.2-.375,33.984,33.984,0,0,1-16.422,9.759,35.38,35.38,0,0,1-35.046-10.386,33.782,33.782,0,0,1-8.6-17.539,34.418,34.418,0,0,1,6.55-27.327,33.359,33.359,0,0,1,12.995-10.574" transform="translate(253.169 1217)" fill="#90a0c0"/>
    <path id="Path_420" data-name="Path 420" d="M798.669,57.469,725.156,207.856A11.066,11.066,0,0,1,715.194,214a10.821,10.821,0,0,1-9.963-15.47L778.744,48.143A11.065,11.065,0,0,1,788.707,42a10.821,10.821,0,0,1,9.962,15.469" transform="translate(253.169 1217)" fill="#3d5276"/>
    <text id="_0" data-name="0" transform="translate(803.222 1416.564)" fill="#91a1c2" font-size="196.239" font-family="BritannicBold, Britannic"><tspan x="0" y="0">0</tspan></text>
  </g>
</svg>
